<?xml version="1.0" encoding="utf-8"?>
<!-- Generator: Adobe Illustrator 19.0.0, SVG Export Plug-In . SVG Version: 6.00 Build 0)  -->
<svg version="1.1" xmlns="http://www.w3.org/2000/svg" xmlns:xlink="http://www.w3.org/1999/xlink" x="0px" y="0px"
	 viewBox="0 0 455 649" style="enable-background:new 0 0 455 649;" xml:space="preserve">
<style type="text/css">
	.st0{fill:#070F1C;}
	.st1{display:none;fill:#473120;}
	.st2{fill:#D4B977;}
	.st3{fill:#D9C185;}
	.st4{fill:#FEF2B7;}
	.st5{fill:#FAE186;}
	.st6{fill:#F9E287;}
	.st7{fill:#FAE288;}
	.st8{fill:#F9E288;}
	.st9{fill:#FBEAA1;}
	.st10{fill:#F8E288;}
	.st11{fill:#FDF5C9;}
	.st12{fill:#FCF4C6;}
	.st13{fill:#FDF5C6;}
	.st14{fill:#F3E290;}
	.st15{display:none;}
	.st16{fill:#777777;}
</style>
<g id="Back">
	<rect id="XMLID_1_" class="st0" width="457" height="649"/>
</g>
<g id="Logo">
	<g id="Popcorns">
		<g id="XMLID_51_">
			<path id="XMLID_113_" class="st1" d="M115.7,364.1c-0.2-8.3,2.3-17.6,8.8-25.2c3.6-4.1,3-7.1,0.9-11.2
				c-9.5-19-11.7-38.6-2.7-58.2c9.6-21,24-36.9,51.6-35.8c2.5,0.1,3.7-0.7,4.8-2.9c16.9-33.1,56.3-41.1,85.3-17.1
				c4.3,3.5,7.4,4.4,13.2,2.9c16.4-4.4,32.7,1.9,43.2,16.3c3.7,5.1,8,9.1,13.3,12.6c32.1,21.3,32.3,60.8,0.5,82.3
				c-3.7,2.5-6.8,5.1-9.1,9.1c-3.7,6.5-10.9,9.4-18,11.9c-2.8,1-4.7,1.5-3.8,5.6c5,23.4-11.8,42.9-37.6,43.7
				c-5.9,0.2-8.2,1.3-10.1,7c-5.8,17.7-19.4,28.7-38.4,32.9c-19.7,4.3-37.8,1.2-52.3-13.5c-2.5-2.5-4.7-5.2-8.6-6.4
				C130.1,410.2,115.5,391.3,115.7,364.1z"/>
			<path id="XMLID_69_" class="st2" d="M307.9,229.7c-3.5-2.4-2.8-3.7,2.7,0.6c4.8,3.7,8.1,10.8,32.8,27.7
				c7.7,7.9,10.8,18.4,11.6,29c1.4,17.6-9.1,29.2-23.6,38.4c-3.4,2.2-6.1,4.3-8.2,7.9c-4.4,7.6-12.2,11.4-21.2,13
				c-3.7,0.6-6.1,1.3-3.8,5.8c5.4,10.8,3.7,21.2-4.3,30.1c-9,10.1-21,15-35,12.5c-6-1.1-6.4-0.4-6.4,5c0,14.6-18.8,32.5-37.4,36.4
				c-19.8,4.2-36.8-0.4-50.3-14.8c-2.8-3-5.9-5-10.1-5.8c-28.6-5-42.9-39.8-34-64.4c2.5-6.8,8.9-10.4,12.6-16.1
				c1-2.2,2.8-2.9,5.2-2.5c5.7,2.7,9,8.1,14.3,11.4c10.4,6.4,21.4,11.3,33.9,13c1.8,0.9,4.8,1.3,4.1,3.8c-0.6,2.2-3.5,2.1-5.6,2.2
				c-15.2,0.9-28.3-4.2-40.4-12.1c-10.1-6.6-13.1-5.8-17.2,5.1c-3.7,9.8-1.1,19.1,2.6,28.3c5.3,13.7,12.8,21,24,22.8
				c-1-5.9-3-11.4-4.4-17c-0.7-3.8-0.8-7.6,0.3-11.3c0.6-2.1,1.1-5.2,3.9-5.1c3.1,0.1,2.9,3.2,3.1,5.3c0.6,8.2,2.6,16,5.5,23.7
				c5,14.2,20.9,26.4,35.2,27.1c19.6,0.9,38.1-8.6,45.1-23.3c3.9-8.1,2-14.2-6.7-22.3c-0.8-0.9-1.4-1.9-1.3-3.1
				c1.5-3.5,4.4-2.2,6.9-1.6c4.2,1.1,7.9,3.4,11.7,5.3c17.9,8.9,40-3.8,39.2-22.3c-0.4-8.9-2.9-10.4-11.5-6.8
				c-1.1,0.5-2.1,0.2-3.1-0.3c-1.3-2-0.4-3.8,0.6-5.6c3-5.1,7.9-7.5,13.8-8.8c5-1.1,10.1-1.9,14.8-4.3c7.7-3.9,12-9.4,11.9-17.8
				c-0.1-3.2-0.6-6.7,2-9.5c0.7-0.4,1.5-0.5,2.3-0.1c3,2.4,2.8,5.9,3.8,10.9c9.2-9.1,20.3-15.2,19.9-28.4
				c-0.4-15.3-4.6-29.2-19.6-38.2c-9.4-6-19.4-6.3-29.8-2.9c-6.7,2.2-10.4,6.4-10.1,13.2c0.2,6.4-0.8,12.8-2.4,19
				c-0.6,2.2-1.5,5.1-4.5,4.5c-2.3-0.4-2.6-3.2-2.4-5.3c1.2-12.8-0.4-25.5-2.6-38.1c0.4-2.2,1.4-3.8,3.9-4.2
				c3.6,1.4,3.6,5.4,6.2,7.8c8-6.1,17.6-7.7,27.3-8.2c-2-1.6-4-3.5-3.7-6.6c-0.5-1,1.8-0.3-0.1-1.7
				C306.6,229.3,313,233.2,307.9,229.7z"/>
			<path id="XMLID_68_" class="st3" d="M138.3,333.2c-1.7,0.5-3.4,1.1-5.1,1.6c-21.8-26.9-16.2-69.9,11.6-90.5
				c9.1-6.7,19.4-9.1,30.8-7.5c3.5,0.5,5.1,0.5,6.2-3.4c8.5-27.7,43.7-39.7,70.7-24.5c1.2,0.7,2.5,1.2,3.4,2.1
				c7.9,7.6,13.4,13.9,25.9,9.3c7-2.6,16.6,1.3,22.6,5.1c5.3,3.4,4.1,4,6.8,6c4.7,3.4,0.1,0.8-1.7,0.9c-5.3-0.7-9-4.8-14.1-5.8
				c-1.8-0.5-3.6-1.1-5.5-1.3c-9.8-1-12.3,1.8-9.4,10.3c0.4,1.2,0.7,2.5,0.2,3.7c-0.3,0.2-0.6,0.5-0.8,0.7c-1,1-2.1,2.1-3.1,3.1
				c-3.8,0.2-3.9-3-5.3-4.9c-6.5-9.4-13.8-18.2-24.9-23.4c-17.7-7.1-34.3-6.9-49.1,6.1c-5.8,5.2-8.4,11.6-9.1,19.1
				c-0.9,9.4-2,18.9-9.2,26.5c-1.8,1.9-3.7,3.8-6.1,5.1c-1.6,0.8-3.2,0.9-4.4-0.5c-1-1.2-0.7-2.4,0.1-3.5c1.7-2.7,4.1-4.8,6-7.3
				c2.6-4.9,5.7-10.8,0.4-14.7c-5.1-3.8-12.4-2.4-17.9,0.4c-11.1,5.5-19.9,13.8-24.4,24.9c-7.6,18.5-7.6,36.9,3,54.7
				C137.1,327.8,139.5,330.1,138.3,333.2z"/>
			<path id="XMLID_67_" class="st4" d="M176.3,261.2c-2.4,3-4.7,6-7.1,8.9c7.1-1.9,11.5-6.7,13.5-12.7c2.1-5.9,3.5-12.2,3.7-18.6
				c0.2-7.7,3.4-14.2,9.8-19.2c2.7,4.4,1.8,8.8,0.2,13.2c-0.7,1.9-1.8,3.7-2.4,5.7c-2.7,9.7-0.2,13.7,10.2,16.2
				c2.1,0.5,4.3,1.1,6.4,1.2c6.5,0.4,13.2,0.3,10.5,9.7c-0.8,2.7,2.1,4.4,4.9,5.3c8,2.6,21.7-5,23.1-12.9c0.3-1.6,0.4-3.2-1.3-4.1
				c-1.7-0.8-3.2,0-4.4,1.1c-2.3,1.9-3.1,4.8-5.3,6.8c-2.2,2-4.7,2.6-7.5,1c-2.7-1.5-3-3.6-1.3-5.8c2.1-2.8-0.2-3.9-1.9-5.7
				c-5.1-5.4-3.8-8.9,3.7-10.7c4.3-1,8.6-1.6,13-0.8c4.5,0.8,8-0.1,10.5-4c2.6-4.1,0.9-7-2-10.2c-3-3.4-6.9-6.8-5.3-12.1
				c10,2.4,14.7,10.5,20.9,16.9c3.5,3.6,5.7,8.4,8.5,12.6c4.5,14,4.3,28.4,3.2,44.8c4.4-6.9,4.5-12.7,4.8-18.2
				c0.9-19,13-27.2,33.3-22.8c4.5,1,7.9,3,11.3,5.5c10.4,15.8,14.5,32.2,5,49.7c-2.3,4.3-5.2,8.5-11.7,7l0,0c-2.5-2-3.1-5.5-7.3-7.1
				c-1.2,5.7-0.6,11.5-2.8,17c-3.2,8.1-8.7,13.4-17.3,16c-1.8,0.6-3.6,1.2-5.4,1.8c-10.6,4-10.6,4-10.3,13.6c-0.5,1.5-1,3.1-1.5,4.6
				c4,2.3,3.1,5.4,1.6,8.7c-4.5,10-19.2,16.8-30.4,13.6c-5.3-1.5-10.5-2.2-15.9-1.7c-1.4,2.5,1.6,3.6,1.7,5.5
				c0.5,0.5,1.1,1.1,1.6,1.6c4.6,6,1.3,11.8-0.9,17.5c-4.5,11.7-18.8,20.9-32,21.3c-17.4,0.5-32.6-3.1-42.8-17.6
				c-5.1-9.2-6.5-19.1-6.4-30.4c-4.6,6.3-2.9,12.3-3.2,17.9c1,6.8-4.1,4.7-7.1,3.7c-6.1-2-11.3-5.6-16-9.9
				c-6.2-12.2-7.5-24.4-0.1-36.5c4.4-7.2,6.8-7.5,13.6-2.4c13.8,10.4,29.2,16.1,48.1,14.3c-1.8-1.1-3-1.9-4.2-2.7
				c-25-8.5-42.9-23.6-50.9-47.7c-5.9-17.7,0.7-33.2,12.4-46.9C153.4,256.3,169.7,255.5,176.3,261.2z"/>
			<path id="XMLID_65_" class="st5" d="M176.3,261.2c-7.1-1-13.9-2.8-21.3-0.2c-9.1,3.2-12.4,11-15.5,17.6
				c-10.5,22.8-2,42.3,15.2,58.8c9.1,8.7,20.3,14.3,31.1,20.6c-19.5-2.1-35.2-10.6-47.6-24.8c-15.2-20.3-16.8-42.4-7.1-64.7
				c4.9-11.4,14.8-20.4,27.2-25.5c4.6-1.9,10.4-1.5,15.7-1.1c3.3,0.2,5.9,2.4,5.8,6.3C179.7,252.8,180,257.4,176.3,261.2z"/>
			<path id="XMLID_64_" class="st6" d="M161,403.9c8.2,5.1,14.9,11.8,25.1,14.3c18.1,4.5,33.6,0.6,44.6-13.5c5-6.4,6.9-14,5.9-22
				c11,7.5,13.1,17.3,5.7,27.7c-11.5,16.2-27.7,23.2-48.3,21C181.3,430.2,164.3,415.9,161,403.9z"/>
			<path id="XMLID_63_" class="st6" d="M235.1,381.1c-2.7-1.9-8-2.5-6.9-6.3c0.9-3,5.8-1.2,8.9-1.4c4.4-0.3,8.4,0.5,12.7,2
				c9.2,3.1,17-1,23.6-6.4c4.1-3.4,8-7.9,4.8-14c1-0.4,2.2-0.5,2.9-1.2c2-1.9,2.9-5.4,6.8-4.1c3.6,1.3,5.5,4.3,6.4,7.5
				c2.7,9-1.6,20.1-9.3,25.3c-10.3,7-21.1,10.6-33.3,3.9C246.6,383.6,242,379.1,235.1,381.1z"/>
			<path id="XMLID_62_" class="st7" d="M322.6,309.2c11.2-5.8,17.5-19.9,14.2-32.9c-2-8-5-15.8-7.5-23.7
				c20.1,10.3,25.9,43.9,9.9,58.8c-4.3,4-7.7,9.2-14.7,10.9C324.3,317.5,324.1,313.2,322.6,309.2z"/>
			<path id="XMLID_61_" class="st8" d="M279.6,350.5c-5.5-6.6-3.8-10.8,5.7-13.8c3.8-1.2,7.6-2.6,11.4-3.9c11.2-4,14.6-12.9,16-22.8
				c0.5-3.9,0.1-8,1-12.1c3.7,3.7,10.1,4.9,9,11.4c-3.1,2.7-1.8,6.3-1.7,9.4c0.6,12.9-7,18.6-20.8,22.7
				C292.8,343.4,284.4,343.4,279.6,350.5z"/>
			<path id="XMLID_59_" class="st9" d="M296.5,224.9c4.7,2,9.7,3.6,13.1,7.6c1.8,2.8,3.7,5.5,5.5,8.3c-9.5,1.3-19.4,1.4-27.2,7.8
				c-2.4,1.9-3.9,1.6-5.2-1.6c-0.9-2.3-2.9-4.2-2.8-6.9c0,0,0.4,0,0.4,0c0.6-1.1,1.3-2.4,2.6-2.6
				C290.8,236.4,294.7,231.6,296.5,224.9z"/>
			<path id="XMLID_58_" class="st10" d="M128.4,385.3c6.2,0.8,10.1,5.5,15.5,7.8c3.1,1.3,6,3.2,7.5-1.6c1.7,5,3.4,10,5.2,15
				c1.5,4.1-1.5,3.7-3.9,3.2c-4.6-0.9-8.9-2.8-12-6C135.5,398.3,130.3,392.7,128.4,385.3z"/>
			<path id="XMLID_57_" class="st11" d="M247.4,213.6c2,4.5,3.7,9.7,8.1,12.1c6.4,3.6,2.8,7.4,1.3,11c-1.7,4.1-5.5,6.8-10.3,5.7
				c-5-1.2-9.6-1.2-14.4,0.3c-2.1,0.7-5.3-0.6-6,2.7c-0.7,3.1,1.6,4.6,4.2,5.8c1.6,0.8,3.6,1.2,5.1,4.4c-0.6,0.2-1.6,0.5-2.6,1.1
				c-1.7,1-4.7,1.9-2.2,4.4c2.2,2.2,4.9,1.9,6.9-0.7c1.8-2.5,2.2-5.7,5.1-7.7c2.4-1.7,4.8-2.6,7.5-1.1c2.5,1.4,2.3,3.9,1.9,6.2
				c-1.5,9.1-17,18.2-26.5,15.5c-5.5-1.6-9.4-4.6-6-10.8c1.7-3.1,0.3-4.2-3-4.2c-3.6,0-7-0.5-10.5-1.2c-15.7-3.3-19.5-9.6-12.3-22.7
				c2.7-4.9,1.8-9.8,2.6-14.7C208,207,231,204.3,247.4,213.6z"/>
			<path id="XMLID_56_" class="st12" d="M296.5,224.9c0.2,10,0.2,10-16.2,15.1c-0.3-1-0.8-1.9-1-2.9c-0.9-3.7-6.6-7-2.7-10.8
				c3.6-3.6,9.3-3.6,14.5-2.9C292.9,223.6,294.7,224.4,296.5,224.9z"/>
			<path id="XMLID_55_" class="st13" d="M290.5,292.4c7.4,0.1,8.2,2.7,7.9,9.6c-0.7,16.8-13.4,21.6-27.2,25.8
				c-2.3,0.7-4.2,1.1-5.6-1.2c-1.2-2-2.5-3.8-0.4-6.2c6-6.8,10.9-14.2,14.9-22.2C282.1,294,286.6,293.5,290.5,292.4z"/>
			<path id="XMLID_54_" class="st13" d="M255.1,324.4c8.8,7.8,9.6,13.7,2.9,24c-1.7,2.6-3.6,5.3-6.1,7.1c-3.5,2.5-5.4,9.4-11.5,6.1
				c-7-3.8-8-12.4-4.3-19.1c2.7-4.9,7.8-8.8,7.6-15C246.2,322.3,250.1,321.4,255.1,324.4z"/>
			<path id="XMLID_53_" class="st14" d="M255.1,324.4c-4.3-0.6-8.2,0.2-11.5,3c-7.4,3.5-11.9,9.4-16,15.8c-3.2,5-7.3,9.3-15.4,12.9
				c4.8-6.8,9.8-11.8,10-17.7c0.3-8.8,5.9-10.3,13-12.2c3.1-0.8,6.2-3.1,8.3-6c1.2-1.6,3.1-3.6,4.9-3.8c8.2-0.8,14-5.8,21.2-9.1
				C263.3,312.1,265.5,322.8,255.1,324.4z"/>
		</g>
	</g>
</g>
<g id="Guide" class="st15">
</g>
<g id="Plus">
	<g id="XMLID_18_">
		<path id="XMLID_22_" class="st16" d="M223.4,268.8c-23.3,0-42.2,18.9-42.2,42.2c0,23.3,18.9,42.2,42.2,42.2
			c23.3,0,42.2-18.9,42.2-42.2C265.6,287.7,246.7,268.8,223.4,268.8L223.4,268.8z M223.4,347.8c-20.3,0-36.8-16.5-36.8-36.8
			c0-20.3,16.5-36.8,36.8-36.8c20.3,0,36.8,16.5,36.8,36.8C260.2,331.3,243.7,347.8,223.4,347.8L223.4,347.8z M223.4,347.8"/>
		<path id="XMLID_19_" class="st16" d="M244.5,308.3h-18.3V290c0-1.5-1.2-2.7-2.7-2.7c-1.5,0-2.7,1.2-2.7,2.7v18.3h-18.3
			c-1.5,0-2.7,1.2-2.7,2.7c0,1.5,1.2,2.7,2.7,2.7h18.3V332c0,1.5,1.2,2.7,2.7,2.7c1.5,0,2.7-1.2,2.7-2.7v-18.3h18.3
			c1.5,0,2.7-1.2,2.7-2.7C247.2,309.5,246,308.3,244.5,308.3L244.5,308.3z M244.5,308.3"/>
	</g>
</g>
</svg>
